Coordinates
version=1
nRows=10
nColumns=34
inDegrees=yes

Units are S.I. units (second, meters, Newtons, ...)
If the header above contains a line with 'inDegrees', this indicates whether rotational values are in degrees (yes) or radians (no).

endheader
time	pelvis_tilt	pelvis_list	pelvis_rotation	pelvis_tx	pelvis_ty	pelvis_tz	hip_flexion_r	hip_adduction_r	hip_rotation_r	knee_angle_r	ankle_angle_r	subtalar_angle_r	mtp_angle_r	hip_flexion_l	hip_adduction_l	hip_rotation_l	knee_angle_l	ankle_angle_l	subtalar_angle_l	mtp_angle_l	lumbar_extension	lumbar_bending	lumbar_rotation	arm_flex_r	arm_add_r	arm_rot_r	elbow_flex_r	pro_sup_r	arm_flex_l	arm_add_l	arm_rot_l	elbow_flex_l	pro_sup_l
      2.73333330	     -9.35034589	     13.72162220	    -57.53856747	     -0.07507505	      0.81549405	     -0.23312716	     66.66955364	     -8.75414115	      5.67619344	     80.80297901	     25.60917096	     -4.55825666	      0.00000000	     65.91798363	     -9.16922226	     -3.26770862	     76.47508202	     21.19457607	    -14.56199968	      0.00000000	    -26.75577172	      0.24263600	     -1.55230909	     63.51644426	    -10.81569001	     28.19711310	     75.39899019	    116.78554236	     61.30206862	    -10.26962958	     27.77675506	     73.65433684	    115.90385284
      2.75000000	     -8.91866695	     13.30741340	    -57.70221763	     -0.07191987	      0.82470829	     -0.22916211	     64.62145671	     -8.78566282	      5.62638553	     79.09293323	     25.59791161	     -4.72578646	      0.00000000	     63.84387062	     -9.12942010	     -3.77468559	     74.87959211	     21.18320354	    -14.33787676	      0.00000000	    -26.71042018	     -0.06362513	     -1.70050006	     62.40428216	    -10.98341618	     29.43328318	     74.78012300	    116.75564455	     60.30929091	    -10.62684763	     29.18476623	     72.82463659	    115.93113679
      2.76666670	     -8.72374009	     13.17006565	    -57.86577563	     -0.06870204	      0.83279558	     -0.22518963	     63.06364236	     -8.82823317	      5.49126503	     77.47444499	     25.40381675	     -4.61217880	      0.00000000	     62.23602747	     -9.16822636	     -4.26200151	     73.37102335	     21.03932326	    -14.06966976	      0.00000000	    -26.10573009	     -0.30803167	     -1.72471739	     61.14217626	    -11.03081664	     30.52378397	     73.88886769	    116.70727104	     59.01874623	    -10.80967632	     30.39210857	     71.73343439	    115.93449541
      2.78333330	     -8.52782281	     12.98998299	    -57.99512004	     -0.06523765	      0.84085490	     -0.22101103	     61.42971369	     -8.85897173	      5.37328264	     75.82575017	     25.27422223	     -4.53524122	      0.00000000	     60.58345541	     -9.16833582	     -4.70949654	     71.84765665	     20.94217243	    -13.79896186	      0.00000000	    -25.49361008	     -0.49744622	     -1.73667332	     59.89544459	    -11.06976157	     31.69954017	     72.85035622	    116.65206631	     57.71224546	    -10.93801932	     31.70687937	     70.51589443	    115.93472811
      2.80000000	     -8.26321877	     12.71675475	    -58.15383890	     -0.06156044	      0.84930549	     -0.21653516	     59.60334654	     -8.89093334	      5.22916258	     74.08832324	     25.12570236	     -4.43400880	      0.00000000	     58.72307742	     -9.16358182	     -5.18204175	     70.21245695	     20.87118096	    -13.48309526	      0.00000000	    -25.04708480	     -0.68707189	     -1.72882491	     58.60832966	    -11.11114260	     32.75313963	     72.00620037	    116.56860261	     56.37073173	    -11.02304095	     32.90861727	     69.42608909	    115.90918539
      2.81666670	     -8.03969361	     12.48574904	    -58.30222581	     -0.05776002	      0.85782717	     -0.21185966	     57.78317894	     -8.93101140	      5.05533865	     72.25719731	     25.02113666	     -4.38120530	      0.00000000	     56.87067883	     -9.14191081	     -5.67293969	     68.46790434	     20.82226917	    -13.19364047	      0.00000000	    -24.56180582	     -0.84682263	     -1.73056396	     57.07905039	    -11.10985111	     33.45002456	     71.45032710	    116.48399244	     54.79665035	    -11.02883821	     33.69241114	     68.63497648	    115.87478507
      2.83333330	     -7.91086618	     12.36732028	    -58.40692035	     -0.05396762	      0.86614049	     -0.20719014	     56.09262362	     -8.99454409	      4.83541741	     70.35096813	     24.83036072	     -4.34420310	      0.00000000	     55.15227667	     -9.10519066	     -6.13167770	     66.63838349	     20.64778160	    -12.94695951	      0.00000000	    -23.84580573	     -0.95163802	     -1.69080312	     55.46965321	    -11.02227958	     33.96222899	     70.80713158	    116.44213563	     53.05775623	    -10.94749632	     34.23456943	     67.78592233	    115.86939953
      2.85000000	     -7.67640871	     12.11041337	    -58.50145216	     -0.05003286	      0.87486659	     -0.20234222	     54.13157290	     -9.04957824	      4.68995187	     68.31439385	     24.62881508	     -4.32717904	      0.00000000	     53.21723396	     -8.99231200	     -6.56497789	     64.73220265	     20.46330121	    -12.69340318	      0.00000000	    -23.27888096	     -1.06936588	     -1.66953938	     53.87496008	    -10.90847535	     34.44544198	     69.87365560	    116.41386525	     51.43550168	    -10.76909760	     34.68536520	     66.63276398	    115.87836622
      2.86666670	     -7.30057871	     11.66609498	    -58.58163271	     -0.04588963	      0.88394536	     -0.19719290	     51.84691071	     -9.09759256	      4.63610229	     66.20406474	     24.38461222	     -4.26050144	      0.00000000	     50.97500237	     -8.78533267	     -6.96006675	     62.74165752	     20.28843496	    -12.38656782	      0.00000000	    -22.93909779	     -1.20367192	     -1.66004582	     52.34138177	    -10.91746554	     35.17320120	     68.87579682	    116.41407461	     49.94571478	    -10.72441174	     35.43202868	     65.44318355	    115.93910187
      2.88333330	     -7.01986991	     11.30193925	    -58.64031122	     -0.04174335	      0.89259163	     -0.19190793	     49.66091236	     -9.18181546	      4.42069675	     64.04067255	     24.14469523	     -4.20231873	      0.00000000	     48.82868064	     -8.60820638	     -7.35934592	     60.67827851	     20.05583128	    -12.08104041	      0.00000000	    -22.41294759	     -1.31103952	     -1.63121848	     50.81857969	    -10.99543276	     36.15728783	     67.86336491	    116.44882060	     48.41608197	    -10.77310169	     36.48832965	     64.29626751	    116.03585815
